# xmcd
#
# Track frame offsets: 
#        150
#        18658
#        32624
#        46545
#        58958
#        73794
#        99869
#        113389
#        129855
#        148928
#        159281
#        181440
#        192497
#        206791
#        217940
#        226937
#        245132
#        257577
#        269353
#        288103
#
# Disc length: 3983 seconds
#
# Revision: 0
# Processed by: cddbd v1.5.2PL0 Copyright (c) Steve Scherf et al.
# Submitted via: ExactAudioCopy v0.95b4
#
DISCID=1d0f8d14
DTITLE=Johnny Maddox - Where The South Crosses The Yellow Dog
DYEAR=2002
DGENRE=Blues
TTITLE0=The Memphis Blues
TTITLE1=Joe Turner Blues
TTITLE2=Atlanta Blues (Make Me A Pallet On The Floor)
TTITLE3=The Hesitaion Blues
TTITLE4=Yellow Dog Blues
TTITLE5=St Louis
TTITLE6=Aunt Hagar's Childrens Blues
TTITLE7=Loveless Love
TTITLE8=Beale Street Blues
TTITLE9=My Memphis Baby
TTITLE10=Beale Street Mama
TTITLE11=Anything Is Nice If It Comes From Dixieland
TTITLE12=War Bride Blues
TTITLE13=It Takes A Long Tall Brown Skinned Gal To Make A Preacher
TTITLE14=Won't You Come Home Bill Bailey
TTITLE15=Potomac River Blues
TTITLE16=What You Goin' To Do When The Rent Comes Round?
TTITLE17=Sweet Georgia Brown
TTITLE18=Muscle Shoals Blues
TTITLE19=That's A Plenty
EXTD=
EXTT0=
EXTT1=
EXTT2=
EXTT3=
EXTT4=
EXTT5=
EXTT6=
EXTT7=
EXTT8=
EXTT9=
EXTT10=
EXTT11=
EXTT12=
EXTT13=
EXTT14=
EXTT15=
EXTT16=
EXTT17=
EXTT18=
EXTT19=
PLAYORDER=
